<svg width="36" height="37" fill="none" viewBox="0 0 36 37" xmlns="http://www.w3.org/2000/svg">
<g clip-rule="evenodd" fill-rule="evenodd">
<path fill="#1D252D" d="M8.25 6.33a2.5 2.5 0 0 0-2.5 2.5v16.25a2.5 2.5 0 0 0 2.5 2.5h4.873a.75.75 0 0 1 .53.219l3.712 3.711.115.101a.875.875 0 0 0 1.138-.084l3.728-3.728a.75.75 0 0 1 .53-.22l4.874.002a2.5 2.5 0 0 0 2.5-2.5V8.83a2.5 2.5 0 0 0-2.5-2.5zM5.42 6.003A4 4 0 0 1 8.25 4.831h19.5a4 4 0 0 1 4 4v16.25a4 4 0 0 1-4 4l-4.563-.002-3.508 3.508a2.375 2.375 0 0 1-3.172.167l-.152-.135-.034-.032-3.508-3.508-4.563.002a4 4 0 0 1-4-4V8.83A4 4 0 0 1 5.42 6.002"/>
<path fill="#C6B3FF" d="M10.25 13.58a.75.75 0 0 1 .75-.75h14a.75.75 0 0 1 0 1.5H11a.75.75 0 0 1-.75-.75m2 4a.75.75 0 0 1 .75-.75h10a.75.75 0 0 1 0 1.5H13a.75.75 0 0 1-.75-.75M15 20.83a.75.75 0 0 0 0 1.5h6a.75.75 0 0 0 0-1.5z"/>
</g>
</svg>
