<svg width="18" height="17" viewBox="0 0 18 17" fill="none" xmlns="http://www.w3.org/2000/svg">
<path d="M17.377 7.45A1.731 1.731 0 0015.9 6h-4.615a.302.302 0 01-.284-.4c.167-.45.3-.91.398-1.38.435-1.635.243-3.012-1.213-3.942a1.384 1.384 0 00-2.113 1.21c.005.665.157 1.734-.114 2.349a16.879 16.879 0 01-1.624 3.238l-.33.354c.22.313.335.686.333 1.068v6.275c0 .35-.098.694-.28.993a2.46 2.46 0 001.134.305h7.078a1.67 1.67 0 001.648-1.247c.082-.39.01-.798-.2-1.138.37-.155.665-.449.822-.818a1.562 1.562 0 00-.082-1.36c.374-.158.671-.456.827-.83a1.624 1.624 0 00-.404-1.74 1.736 1.736 0 00.495-1.487zM4.443 7.206H.794a.303.303 0 00-.302.302v8.26a.302.302 0 00.302.303h3.65a1.29 1.29 0 001.122-.658c.112-.194.17-.414.169-.637V8.5a1.295 1.295 0 00-1.292-1.295zM13.319 2.33a1.36 1.36 0 011.358 1.358.302.302 0 00.604 0 1.36 1.36 0 011.358-1.358.302.302 0 000-.604A1.36 1.36 0 0115.28.368a.301.301 0 00-.604 0 1.36 1.36 0 01-1.358 1.358.302.302 0 000 .604zM3.054 2.33a1.36 1.36 0 011.358 1.358.302.302 0 00.604 0A1.36 1.36 0 016.374 2.33a.302.302 0 000-.604A1.36 1.36 0 015.016.368a.302.302 0 00-.604 0 1.36 1.36 0 01-1.358 1.358.302.302 0 000 .604z" fill="#fff"/>
</svg>
