<svg width="20" height="20" viewBox="0 0 20 20" fill="none" xmlns="http://www.w3.org/2000/svg">
{/* Triangle fill */}
<path d="M8.67473 3.7106L2.12477 14.6454C1.98982 14.8793 1.91844 15.1445 1.91773 15.4145C1.91702 15.6845 1.98701 15.9501 2.12073 16.1847C2.25445 16.4193 2.44725 16.6148 2.67996 16.7518C2.91267 16.8887 3.17718 16.9624 3.4472 16.9655H16.5471C16.8172 16.9627 17.0819 16.8892 17.3148 16.7523C17.5477 16.6153 17.7406 16.4198 17.8744 16.1851C18.0082 15.9504 18.0781 15.6848 18.0772 15.4146C18.0764 15.1445 18.0048 14.8793 17.8695 14.6454L11.3205 3.7106C11.1828 3.48317 10.9887 3.29511 10.757 3.16458C10.5254 3.03406 10.264 2.96548 9.99808 2.96548C9.73219 2.96548 9.47079 3.03406 9.23914 3.16458C9.00748 3.29511 8.81341 3.48317 8.67566 3.7106Z" fill="#FFED9D"/>
{/* Triangle border (BLACK) */}
<path d="M9.99781 2.46548C10.3497 2.46548 10.6961 2.55642 11.0027 2.72916C11.2709 2.88034 11.5011 3.08979 11.6765 3.34146L11.7478 3.45181L11.7498 3.45377L18.2986 14.3883C18.4814 14.7045 18.5757 15.0554 18.5769 15.4128C18.578 15.7702 18.4853 16.1217 18.3084 16.4323C18.1313 16.7429 17.8763 17.0021 17.5681 17.1833C17.26 17.3644 16.9099 17.4618 16.5525 17.4655H3.44117C3.08401 17.4614 2.73434 17.3635 2.42652 17.1823C2.1186 17.001 1.86323 16.7427 1.68629 16.4323C1.50935 16.1219 1.41679 15.7701 1.41773 15.4128C1.41875 15.0556 1.51365 14.7045 1.69215 14.3952L8.24586 3.45377C8.43284 3.14736 8.68914 2.90087 8.9939 2.72916C9.30037 2.55649 9.64605 2.46553 9.99781 2.46548Z" fill="none" stroke="#000" stroke-width="1"/>
{/* Exclamation bar (BLACK) */}
<path d="M9.49683 10.9333V8.14908C9.49696 7.87315 9.72092 7.64926 9.99683 7.64908C10.2729 7.64908 10.4967 7.87304 10.4968 8.14908V10.9333C10.4968 11.2094 10.273 11.4333 9.99683 11.4333C9.72084 11.4331 9.49683 11.2093 9.49683 10.9333Z" fill="#000"/>
{/* Exclamation dot (BLACK) */}
<path d="M10.0046 13.2174C10.2808 13.2175 10.5046 13.4413 10.5046 13.7174C10.5046 13.9936 10.2808 14.2174 10.0046 14.2174H9.99683C9.72085 14.2173 9.49684 13.9935 9.49683 13.7174C9.49683 13.4414 9.72084 13.2176 9.99683 13.2174H10.0046Z" fill="#000"/>
</svg>
